<svg width="106" height="97" viewBox="0 0 106 97" fill="none" xmlns="http://www.w3.org/2000/svg">
<path d="M52.7819 61.8084C52.7819 61.8084 64.6767 34.465 105.516 29.7097L104.314 16.7467C52.4455 34.4308 52.7819 61.8084 52.7819 61.8084Z" fill="#DADADA"/>
<path d="M1.2015 16.6553L0 29.6983C39.4691 34.2707 51.9286 59.9223 52.7336 61.7056C52.7336 61.7056 53.0941 34.3736 1.2015 16.6553Z" fill="#DADADA"/>
<path d="M53.5985 49.2342C53.5985 49.2342 59.2816 25.7431 98.6065 15.5579C98.6065 15.6036 62.7779 13.9347 53.5985 49.2342Z" fill="white"/>
<path d="M51.8444 48.8683C51.8444 48.8683 50.5227 19.0558 12.0869 0L12.94 8.07043C12.94 8.07043 37.8109 16.1866 51.8444 48.8683Z" fill="white"/>
<path d="M11.7998 82.1924H8.29883V90H3.9043V68.6719H11.8291C14.3486 68.6719 16.292 69.2334 17.6592 70.3564C19.0264 71.4795 19.71 73.0664 19.71 75.1172C19.71 76.5723 19.3926 77.7881 18.7578 78.7646C18.1328 79.7314 17.1807 80.5029 15.9014 81.0791L20.5156 89.7949V90H15.7988L11.7998 82.1924ZM8.29883 78.6328H11.8438C12.9473 78.6328 13.8018 78.3545 14.4072 77.7979C15.0127 77.2314 15.3154 76.4551 15.3154 75.4688C15.3154 74.4629 15.0273 73.6719 14.4512 73.0957C13.8848 72.5195 13.0107 72.2314 11.8291 72.2314H8.29883V78.6328ZM42.207 68.6719V82.7197C42.207 85.0537 41.4746 86.8994 40.0098 88.2568C38.5547 89.6143 36.5625 90.293 34.0332 90.293C31.543 90.293 29.5654 89.6338 28.1006 88.3154C26.6357 86.9971 25.8887 85.1855 25.8594 82.8809V68.6719H30.2539V82.749C30.2539 84.1455 30.5859 85.166 31.25 85.8105C31.9238 86.4453 32.8516 86.7627 34.0332 86.7627C36.5039 86.7627 37.7588 85.4639 37.7979 82.8662V68.6719H42.207ZM61.6426 81.2842H53.2051V90H48.8105V68.6719H62.6973V72.2314H53.2051V77.7393H61.6426V81.2842ZM84.3887 68.6719V82.7197C84.3887 85.0537 83.6562 86.8994 82.1914 88.2568C80.7363 89.6143 78.7441 90.293 76.2148 90.293C73.7246 90.293 71.7471 89.6338 70.2822 88.3154C68.8174 86.9971 68.0703 85.1855 68.041 82.8809V68.6719H72.4355V82.749C72.4355 84.1455 72.7676 85.166 73.4316 85.8105C74.1055 86.4453 75.0332 86.7627 76.2148 86.7627C78.6855 86.7627 79.9404 85.4639 79.9795 82.8662V68.6719H84.3887ZM103.824 81.2842H95.3867V90H90.9922V68.6719H104.879V72.2314H95.3867V77.7393H103.824V81.2842Z" fill="white"/>
</svg>
